<svg preserveAspectRatio="xMinYMid meet" width="100%" height="100%" overflow="visible" style="display: block;" viewBox="0 0 109.85 19.1151" fill="none" xmlns="http://www.w3.org/2000/svg">
<g id="Vector">
<path d="M97.2715 15.21C97.0745 15.21 96.9294 15.0257 96.9756 14.8342L100.484 0.28578C100.517 0.149073 100.639 0.0527443 100.78 0.0527443H103.255C103.452 0.0527443 103.597 0.236651 103.551 0.428025L101.763 7.89539C101.74 7.99157 101.854 8.06051 101.929 7.99537L106.675 3.84024C106.73 3.79165 106.802 3.76487 106.875 3.76487H109.545C109.829 3.76487 109.958 4.11892 109.741 4.30192L105.04 8.26831C104.937 8.35551 104.903 8.50043 104.958 8.62409L107.682 14.7825C107.771 14.9837 107.624 15.21 107.404 15.21H104.781C104.659 15.21 104.548 15.137 104.501 15.0247L102.53 10.3885C102.447 10.1933 102.195 10.1406 102.041 10.2864L101.008 11.2632C100.965 11.3037 100.935 11.3557 100.921 11.413L100.061 14.977C100.028 15.1137 99.9059 15.21 99.7653 15.21H97.2715Z" fill="var(--fill-0, #0F2124)"/>
<path d="M93.1841 15.2102C92.987 15.2102 92.8419 15.0257 92.8883 14.8341L95.5154 3.99775C95.5485 3.86122 95.6708 3.76507 95.8112 3.76507H98.2861C98.4831 3.76507 98.6282 3.94927 98.5821 4.14074L95.9723 14.9771C95.9393 15.1138 95.817 15.2102 95.6763 15.2102H93.1841Z" fill="var(--fill-0, #0F2124)"/>
<path d="M95.9719 2.01153C95.9262 2.20288 96.0712 2.38673 96.268 2.38673H98.8785C99.0185 2.38673 99.1405 2.29115 99.174 2.15515L99.6121 0.377219C99.6594 0.185352 99.5141 0 99.3165 0H96.6932C96.5523 0 96.4299 0.096619 96.3971 0.233598L95.9719 2.01153Z" fill="var(--fill-0, #0F2124)"/>
<path d="M90.5774 7.28706C90.5777 7.28706 90.578 7.28685 90.5781 7.28656C90.788 6.387 90.3289 5.81338 89.3145 5.81338C88.3092 5.81338 87.3229 6.39562 87.0263 7.16992C87.0246 7.1742 87.0182 7.17299 87.0182 7.16841C87.0182 7.16356 87.0112 7.16274 87.0101 7.16746L85.1413 14.9764C85.1085 15.1134 84.9861 15.21 84.8453 15.21H82.3717C82.1746 15.21 82.0294 15.0255 82.0759 14.8339L84.703 3.99753C84.7361 3.861 84.8583 3.76485 84.9988 3.76485H87.2845C87.4806 3.76485 87.6255 3.94751 87.581 4.13845L87.4674 4.62514C87.4454 4.71927 87.5565 4.78982 87.6343 4.7325C88.6184 4.00776 89.8698 3.51603 91.0553 3.51603C93.1983 3.51603 94.1936 4.93181 93.6005 7.22917L91.8553 14.9725C91.824 15.1114 91.7007 15.21 91.5584 15.21H89.086C88.8895 15.21 88.7445 15.0266 88.7897 14.8355L90.5768 7.28755C90.5769 7.28726 90.5771 7.28706 90.5774 7.28706Z" fill="var(--fill-0, #0F2124)"/>
<path d="M76.1227 15.4973C72.3333 15.4973 69.9791 12.5114 71.0892 8.41634C71.6823 5.60305 74.0751 3.47835 77.118 3.47835C80.888 3.49765 83.2229 6.34954 82.1321 10.3491C81.539 13.2771 79.1269 15.4973 76.1227 15.4973ZM73.999 8.914C73.348 11.4399 74.3433 13.2964 76.1237 13.2964C77.5405 13.2964 78.7267 11.9182 79.1858 9.85143C79.8175 7.40173 78.8415 5.67922 77.0997 5.67922C75.626 5.67922 74.4205 6.96196 73.999 8.914Z" fill="var(--fill-0, #0F2124)"/>
<path d="M64.8104 15.4587C61.914 15.4587 59.9477 13.9301 59.8215 11.6819C59.8122 11.5159 59.9489 11.382 60.1151 11.382H62.4006C62.5688 11.382 62.7029 11.519 62.723 11.6859C62.8558 12.7871 63.7134 13.5443 64.9252 13.5443C65.8058 13.5443 66.4375 13.1228 66.5522 12.4921C66.7056 11.7263 66.1308 11.1139 64.4661 10.5014C61.9403 9.46752 60.9825 8.1665 61.3847 6.38711C61.6914 4.64531 63.4901 3.47835 65.8251 3.47835C68.6214 3.47835 70.5451 5.10119 70.6958 7.21459C70.7076 7.38126 70.5705 7.51649 70.4034 7.51649H68.0815C67.9134 7.51649 67.7791 7.37951 67.7605 7.21243C67.6389 6.11977 66.858 5.41109 65.7865 5.41109C64.9445 5.41109 64.2742 5.83258 64.1787 6.46329C64.0254 7.20977 64.5809 7.74603 66.2455 8.33915C68.8486 9.29588 69.8053 10.6172 69.3462 12.55C69.0405 14.3111 67.2023 15.4587 64.8104 15.4587Z" fill="var(--fill-0, #0F2124)"/>
<path d="M52.6652 15.2105C52.4682 15.2103 52.3233 15.0258 52.3697 14.8344L54.9969 3.99768C55.03 3.86114 55.1522 3.765 55.2927 3.765H57.4733C57.6724 3.765 57.8179 3.95296 57.768 4.1457L57.6843 4.46911C57.6576 4.57217 57.7954 4.6489 57.8745 4.5776C58.6219 3.9037 59.5778 3.59336 60.756 3.59336C60.8898 3.59336 61.016 3.59703 61.1269 3.60276C61.3075 3.6121 61.4252 3.78468 61.3807 3.95993L60.8852 5.9118C60.8448 6.07062 60.6858 6.16926 60.5228 6.15237C60.2944 6.12871 60.0214 6.12024 59.7221 6.12024C58.4018 6.12024 57.502 6.50314 57.2155 7.51775L55.3963 14.9789C55.3631 15.1152 55.2409 15.2111 55.1006 15.2111L52.6652 15.2105Z" fill="var(--fill-0, #0F2124)"/>
<path d="M46.6803 15.4978C46.6803 15.4975 46.6801 15.4973 46.6798 15.4973C42.8329 15.497 40.5754 12.4919 41.59 8.56869C42.2217 5.58274 44.7862 3.47835 47.8869 3.47835C51.4254 3.47835 53.59 6.26122 52.9122 9.87576C52.8856 10.0177 52.7589 10.1182 52.6145 10.1162L44.629 10.0086C44.4692 10.0065 44.3338 10.1288 44.3295 10.2885C44.2779 12.1735 45.353 13.3736 46.7758 13.3736C47.8302 13.3736 48.7123 12.7863 49.2899 11.7439C49.3465 11.6419 49.4529 11.5759 49.5696 11.5773L52.0456 11.6079C52.2617 11.6106 52.4057 11.8313 52.3105 12.0253C51.2466 14.1912 49.3118 15.4982 46.6808 15.4983C46.6806 15.4983 46.6803 15.4981 46.6803 15.4978ZM44.9431 7.73688C44.8578 7.92644 44.9999 8.13362 45.2076 8.13817L49.7063 8.23662C49.8813 8.24046 50.0247 8.0957 50.0052 7.9217C49.847 6.51215 48.9974 5.58375 47.7325 5.58375C46.5791 5.58375 45.5383 6.41325 44.9431 7.73688Z" fill="var(--fill-0, #0F2124)"/>
<path d="M34.9864 15.4406C33.5655 15.4406 32.2971 14.8999 31.5458 13.9299C31.4911 13.8593 31.375 13.8817 31.3554 13.9688L30.2195 19.0358C30.2092 19.0822 30.168 19.1151 30.1205 19.1151H27.23C27.1643 19.1151 27.1159 19.0536 27.1314 18.9898L30.1632 6.46444C30.3672 5.57325 30.5541 4.71748 30.7395 3.82744C30.7493 3.78037 30.7908 3.74661 30.8389 3.74661H33.4661C33.5298 3.74661 33.5778 3.80466 33.566 3.86726C33.5052 4.18948 33.451 4.49715 33.3931 4.80656C33.374 4.90883 33.5077 4.9759 33.5812 4.9023C34.4509 4.03205 35.5759 3.49778 36.842 3.49778C39.9427 3.49778 41.5697 6.36897 40.4972 10.4071C39.8848 13.5078 37.7794 15.4406 34.9854 15.4406H34.9864ZM32.5748 9.08679C32.575 9.08679 32.5752 9.08705 32.5752 9.0873C31.9244 11.6322 32.9583 13.3352 34.508 13.3352C35.867 13.3352 37.0918 11.9956 37.5316 9.94805C38.2019 7.40288 37.2634 5.62248 35.7136 5.62248C34.3355 5.62248 33.0539 7.00047 32.5744 9.0863C32.5743 9.08655 32.5745 9.08679 32.5748 9.08679Z" fill="var(--fill-0, #0F2124)"/>
<path d="M21.0962 15.4593C21.0958 15.459 21.0954 15.4588 21.0949 15.4588C18.7219 15.4585 17.6507 13.928 18.2824 11.5933L19.9873 3.84553C19.9976 3.799 20.0388 3.76587 20.0864 3.76587H22.9966C23.0621 3.76587 23.1104 3.82699 23.0953 3.89072L21.2114 11.8422C21.0195 12.6455 21.441 13.2204 22.3408 13.2204C23.2373 13.2204 24.2094 12.7839 24.6515 11.8908C24.6548 11.8842 24.6573 11.8771 24.6591 11.8699L26.5898 3.8436C26.6008 3.79801 26.6415 3.76587 26.6884 3.76587H29.5994C29.6648 3.76587 29.7131 3.82688 29.6981 3.89058L27.7369 12.225C27.4587 13.2256 27.2709 14.2071 27.1726 15.1198C27.167 15.1716 27.1234 15.211 27.0714 15.211H24.558C24.4977 15.211 24.4507 15.1588 24.457 15.0988C24.4825 14.8579 24.5093 14.6087 24.5489 14.3512C24.5635 14.256 24.4483 14.1896 24.3726 14.2492C23.4001 15.0154 22.2326 15.4596 21.0974 15.4598C21.0969 15.4598 21.0965 15.4596 21.0962 15.4593Z" fill="var(--fill-0, #0F2124)"/>
<path d="M5.65508 9.53959L5.63983 9.58938C5.63577 9.57312 5.63069 9.55686 5.62459 9.5406H5.65508V9.53959Z" fill="var(--fill-0, #0F2124)"/>
<path d="M5.65508 9.53959L5.63983 9.58938C5.63577 9.57312 5.63069 9.55686 5.62459 9.5406H5.65508V9.53959Z" fill="#D7FFA4"/>
<path d="M5.65508 9.53959L5.63983 9.58938C5.63577 9.57312 5.63069 9.55686 5.62459 9.5406H5.65508V9.53959Z" fill="var(--fill-0, #0F2124)"/>
<path d="M0.000572292 9.24526C-0.00994973 9.08014 0.126038 8.94707 0.291484 8.94629L1.7329 8.93946C1.93661 8.9385 2.08376 9.13402 2.02644 9.3295L1.46035 11.2602C1.40121 11.462 1.16002 11.5437 1.00655 11.4001C0.41784 10.8489 0.0555068 10.1073 0.000572292 9.24526Z" fill="var(--fill-0, #0F2124)"/>
<path d="M3.56538 2.69091C3.7823 2.62154 3.97231 2.8281 3.90827 3.04666L2.68639 7.21702C2.62837 7.41506 2.39336 7.49929 2.23579 7.36602C1.44819 6.69991 1.18818 5.88314 1.4078 4.89667C1.60225 3.89216 2.41423 3.05902 3.56538 2.69091Z" fill="var(--fill-0, #0F2124)"/>
<path d="M5.53551 9.45834C5.5381 9.4674 5.53778 9.47684 5.5351 9.48588L4.5722 12.7361C4.53722 12.8533 4.40071 12.9059 4.30005 12.8364C4.25295 12.8038 4.20674 12.7704 4.1614 12.7361C4.03735 12.6435 3.92042 12.5449 3.80959 12.4402C3.0846 11.7619 2.64126 10.8478 2.57822 9.78627C2.57717 9.76926 2.57623 9.75223 2.57539 9.73517C2.56731 9.56987 2.70336 9.43687 2.86886 9.43607L5.48718 9.42345C5.50927 9.42334 5.52945 9.43709 5.53551 9.45834Z" fill="var(--fill-0, #0F2124)"/>
<path d="M7.43517 1.59153C7.64939 1.54715 7.8223 1.75113 7.76009 1.96086L6.09441 7.58197C6.03791 7.77219 5.8169 7.85871 5.65361 7.74597C5.03976 7.32215 4.6221 6.84301 4.39173 6.30664C4.14973 5.74637 4.11211 5.12306 4.26565 4.43264C4.29819 4.26589 4.34496 4.1032 4.40495 3.94457C4.60832 3.40363 4.9642 2.91759 5.44007 2.52408C5.97161 2.08141 6.65254 1.75366 7.43517 1.59153Z" fill="var(--fill-0, #0F2124)"/>
<path d="M11.8866 15.5238C11.8868 15.5239 11.8867 15.5243 11.8864 15.5243C8.45863 15.5239 6.01641 13.4612 5.91414 10.5167C5.90841 10.3516 6.04358 10.2188 6.20879 10.2178L8.76872 10.2021C8.9364 10.2011 9.07213 10.3366 9.08498 10.5038C9.22371 12.3085 10.4418 13.3412 12.0218 13.3412C13.4392 13.3412 14.2629 12.6518 14.3971 11.8475C14.6838 10.6405 13.8226 9.7793 11.6964 8.95568C8.6897 7.76804 7.56002 6.1025 8.05724 3.86144C8.45888 1.79222 10.585 0.202932 13.3813 0.202932C16.6759 0.202932 18.9147 2.18836 19.0094 5.01779C19.0149 5.18351 18.8787 5.3165 18.7128 5.3165H16.1362C15.9681 5.3165 15.8331 5.17988 15.8208 5.01221C15.7052 3.43476 14.6875 2.36672 13.2461 2.36672C12.0777 2.36672 11.1778 2.99816 11.0243 3.8411C10.7945 4.85588 11.5602 5.62256 13.5521 6.3689C16.8466 7.65213 17.9956 9.41427 17.3631 11.9421C16.9798 13.9714 14.7973 15.5229 11.8867 15.5233C11.8864 15.5233 11.8863 15.5237 11.8866 15.5238Z" fill="var(--fill-0, #0F2124)"/>
</g>
</svg>
